# xmcd
#
# Track frame offsets:
# 150
# 18282
# 33460
# 55907
# 74285
# 92805
# 125082
# 139710
# 162930
# 183452
# 202850
# 223455
# 254740
#
# Disc length: 3426 seconds
#
#
# Revision: 2
# Processed by: cddbd v1.5.1PL0 Copyright (c) Steve Scherf et al.
# Submitted via: FreeRIP 2.80 
#
DISCID=c60d600d
DTITLE=Scott Underwood - Take my life
DYEAR=2005
DGENRE=Worship
TTITLE0=Stand Back
TTITLE1=Greater Grace
TTITLE2=You are in Control
TTITLE3=Unspoken Truth
TTITLE4=Lord you never Promised
TTITLE5=What a Friend we have in Jesus
TTITLE6=New every Morning
TTITLE7=You are God
TTITLE8=Nothing is as Wonderful
TTITLE9=You bless me Lord
TTITLE10=Take my life
TTITLE11=Its all about Jesus
TTITLE12=Daten-CD
EXTD=
EXTT0=
EXTT1=
EXTT2=
EXTT3=
EXTT4=
EXTT5=
EXTT6=
EXTT7=
EXTT8=
EXTT9=
EXTT10=
EXTT11=
EXTT12=
PLAYORDER=
